<?xml version="1.0" encoding="UTF-8" standalone="no"?>
<!-- Created with Inkscape (http://www.inkscape.org/) -->

<svg
   xmlns:dc="http://purl.org/dc/elements/1.1/"
   xmlns:cc="http://creativecommons.org/ns#"
   xmlns:rdf="http://www.w3.org/1999/02/22-rdf-syntax-ns#"
   xmlns:svg="http://www.w3.org/2000/svg"
   xmlns="http://www.w3.org/2000/svg"
   xmlns:sodipodi="http://sodipodi.sourceforge.net/DTD/sodipodi-0.dtd"
   xmlns:inkscape="http://www.inkscape.org/namespaces/inkscape"
   width="133.99112mm"
   height="133.99112mm"
   viewBox="0 0 474.77168 474.77168"
   id="svg2"
   version="1.1"
   inkscape:version="0.91 r13725"
   sodipodi:docname="icon2.inkscape.svg">
  <defs
     id="defs4" />
  <sodipodi:namedview
     id="base"
     pagecolor="#b7b297"
     bordercolor="#666666"
     borderopacity="1.0"
     inkscape:pageopacity="0"
     inkscape:pageshadow="2"
     inkscape:zoom="1.4"
     inkscape:cx="177.33954"
     inkscape:cy="234.99469"
     inkscape:document-units="px"
     inkscape:current-layer="layer1"
     showgrid="false"
     inkscape:window-width="1920"
     inkscape:window-height="1147"
     inkscape:window-x="-8"
     inkscape:window-y="-8"
     inkscape:window-maximized="1"
     fit-margin-top="0"
     fit-margin-left="0"
     fit-margin-right="0"
     fit-margin-bottom="0" />
  <metadata
     id="metadata7">
    <rdf:RDF>
      <cc:Work
         rdf:about="">
        <dc:format>image/svg+xml</dc:format>
        <dc:type
           rdf:resource="http://purl.org/dc/dcmitype/StillImage" />
        <dc:title></dc:title>
      </cc:Work>
    </rdf:RDF>
  </metadata>
  <g
     inkscape:label="Layer 1"
     inkscape:groupmode="layer"
     id="layer1"
     transform="translate(-128.69545,-138.86742)">
    <rect
       style="fill:none;fill-opacity:1;stroke:#ffffff;stroke-width:17.49999888;stroke-linecap:butt;stroke-linejoin:round;stroke-miterlimit:4;stroke-dasharray:none;stroke-opacity:1"
       id="rect4146"
       width="184.81364"
       height="149.58449"
       x="215.32898"
       y="352.01511" />
    <circle
       style="fill:none;fill-opacity:1;stroke:#00ffff;stroke-width:5;stroke-miterlimit:4;stroke-dasharray:none;stroke-opacity:1"
       id="path4150-1"
       cx="132.5"
       cy="919.86218"
       r="0" />
    <path
       style="fill:#ffffff;fill-opacity:1;stroke:#ffffff;stroke-width:9.99999936;stroke-linejoin:miter;stroke-miterlimit:4;stroke-dasharray:none;stroke-opacity:1"
       id="path4248"
       d="m 568.81702,383.58498 c 0.004,-54.47696 -21.2726,-105.75381 -59.8957,-144.37691 -38.62309,-38.6231 -89.89242,-59.89946 -144.3769,-59.89569 -2.94064,0 -5.31721,2.37657 -5.31721,5.31721 0,2.94063 2.37657,5.31721 5.31721,5.31721 51.64161,-0.004 100.24482,20.16327 136.85986,56.77831 36.61504,36.61505 56.78208,85.21825 56.78208,136.85611 0,1.46655 0.59414,2.79774 1.5568,3.7604 0.96267,0.96266 2.29385,1.55681 3.76041,1.55681 2.93687,0.004 5.31721,-2.37658 5.31345,-5.31345 z"
       inkscape:connector-curvature="0" />
    <path
       style="fill:#ffffff;fill-opacity:1;stroke:#ffffff;stroke-width:9.99999936;stroke-linejoin:miter;stroke-miterlimit:4;stroke-dasharray:none;stroke-opacity:1"
       id="path4250"
       d="m 364.54818,223.51591 c -2.94064,0 -5.31721,2.37658 -5.31721,5.31721 0,1.46656 0.59414,2.79774 1.5568,3.7604 0.96267,0.96267 2.29385,1.55681 3.76041,1.55681 82.39419,-0.004 149.42713,67.02918 149.42712,149.42713 0,2.94063 2.37658,5.31721 5.31721,5.31721 2.94064,0 5.31721,-2.37658 5.31721,-5.31721 10e-6,-88.24914 -71.79737,-160.06155 -160.06154,-160.06155 z"
       inkscape:connector-curvature="0" />
    <path
       style="fill:#ffffff;fill-opacity:1;stroke:#ffffff;stroke-width:9.99999936;stroke-linejoin:miter;stroke-miterlimit:4;stroke-dasharray:none;stroke-opacity:1"
       id="path4252"
       d="m 446.43095,301.69845 c -21.90435,-21.90435 -50.98354,-33.96396 -81.88277,-33.96772 -2.94064,0 -5.31721,2.37657 -5.31721,5.31721 0,2.94063 2.37657,5.31721 5.31721,5.31721 28.05636,0.004 54.46567,10.95781 74.36196,30.8541 19.89629,19.89629 30.85035,46.3056 30.85411,74.36197 0,1.46655 0.59414,2.79774 1.5568,3.7604 0.96267,0.96266 2.29385,1.55681 3.76041,1.55681 2.94063,0 5.31721,-2.37658 5.31721,-5.31721 0,-30.89547 -12.06338,-59.97843 -33.96772,-81.88277 z"
       inkscape:connector-curvature="0" />
    <g
       id="g4256"
       transform="matrix(8.0246735,0,0,8.0246735,61.119185,610.19682)" />
    <g
       id="g4258"
       transform="matrix(8.0246735,0,0,8.0246735,61.119185,610.19682)" />
    <g
       id="g4260"
       transform="matrix(8.0246735,0,0,8.0246735,61.119185,610.19682)" />
    <g
       id="g4262"
       transform="matrix(8.0246735,0,0,8.0246735,61.119185,610.19682)" />
    <g
       id="g4264"
       transform="matrix(8.0246735,0,0,8.0246735,61.119185,610.19682)" />
    <g
       id="g4266"
       transform="matrix(8.0246735,0,0,8.0246735,61.119185,610.19682)" />
    <g
       id="g4268"
       transform="matrix(8.0246735,0,0,8.0246735,61.119185,610.19682)" />
    <g
       id="g4270"
       transform="matrix(8.0246735,0,0,8.0246735,61.119185,610.19682)" />
    <g
       id="g4272"
       transform="matrix(8.0246735,0,0,8.0246735,61.119185,610.19682)" />
    <g
       id="g4274"
       transform="matrix(8.0246735,0,0,8.0246735,61.119185,610.19682)" />
    <g
       id="g4276"
       transform="matrix(8.0246735,0,0,8.0246735,61.119185,610.19682)" />
    <g
       id="g4278"
       transform="matrix(8.0246735,0,0,8.0246735,61.119185,610.19682)" />
    <g
       id="g4280"
       transform="matrix(8.0246735,0,0,8.0246735,61.119185,610.19682)" />
    <g
       id="g4282"
       transform="matrix(8.0246735,0,0,8.0246735,61.119185,610.19682)" />
    <g
       id="g4284"
       transform="matrix(8.0246735,0,0,8.0246735,61.119185,610.19682)" />
    <circle
       style="fill:#ffffff;fill-opacity:1;stroke:none;stroke-width:8.75;stroke-linecap:butt;stroke-linejoin:round;stroke-miterlimit:4;stroke-dasharray:none;stroke-opacity:1"
       id="path4341"
       cx="259.82144"
       cy="392.5705"
       r="14.107142" />
    <path
       style="fill:none;fill-rule:evenodd;stroke:#ffffff;stroke-width:12.99999916;stroke-linecap:round;stroke-linejoin:round;stroke-miterlimit:4;stroke-dasharray:none;stroke-opacity:1"
       d="m 235.46527,472.18186 42.80893,-48.36477 28.81781,28.99112"
       id="path4358"
       inkscape:connector-curvature="0"
       sodipodi:nodetypes="ccc" />
    <path
       style="fill:none;fill-rule:evenodd;stroke:#ffffff;stroke-width:12.99999916;stroke-linecap:round;stroke-linejoin:round;stroke-miterlimit:4;stroke-dasharray:none;stroke-opacity:1"
       d="m 302.92141,441.32144 38.62039,-38.90574 37.81944,41.47753"
       id="path4360"
       inkscape:connector-curvature="0"
       sodipodi:nodetypes="ccc" />
  </g>
</svg>
